<svg xmlns="http://www.w3.org/2000/svg" viewBox="0 0 65 65"><defs><style>.cls-1{isolation:isolate;}.cls-2{fill:#f89f36;}.cls-3{fill:#383838;opacity:0.2;mix-blend-mode:multiply;}.cls-4,.cls-5{fill:#fff;}.cls-4{opacity:0.1;}</style></defs><title>bitcoin</title><g class="cls-1"><g id="Layer_2" data-name="Layer 2"><g id="OBJECTS"><circle class="cls-2" cx="32.5" cy="32.5" r="32.49" transform="translate(-6.6 8.34) rotate(-13.28)"/><circle class="cls-3" cx="32.5" cy="32.5" r="27.49" transform="translate(-6.6 8.34) rotate(-13.28)"/><path class="cls-4" d="M38.78,59.28A27.49,27.49,0,0,1,5,32.85a27.5,27.5,0,1,0,55,.34A27.5,27.5,0,0,1,38.78,59.28Z"/><path class="cls-3" d="M26.18,7.74A27.5,27.5,0,0,1,60,33.49a27.49,27.49,0,1,0-55,0A27.5,27.5,0,0,1,26.18,7.74Z"/><path class="cls-5" d="M45.28,33.12a4.63,4.63,0,0,0-3-3,19.57,19.57,0,0,0-2.16-.47c.07-.07.11-.13.16-.17,3-2.4,1.61-7.49-1.18-8.74A9,9,0,0,0,35.55,20c-.87,0-1.72,0-2.6.07-.31-1.49-.71-3.55-1.06-5.21l-3.12.65c.31,1.63.73,3.63,1,5.11l-2.51.52c-.31-1.47-.7-3.47-1-5.1l-3.09.64c.32,1.66.75,3.71,1,5.19l-6.33,1.26c.24,1.15.43,2.22.67,3.34.45-.09.85-.18,1.23-.23s.8-.17,1.18-.22a1.63,1.63,0,0,1,2,1.42c.87,4.47,1.75,9,2.65,13.42.21,1-.14,1.45-1.1,1.65l-2.08.43c0,1.3.08,2.54.13,3.84l6.34-1.24c.33,1.6.73,3.63,1.08,5.31l3.12-.65c-.32-1.69-.73-3.66-1-5.24l2.52-.44c.33,1.6.71,3.55,1.05,5.18L38.74,49c-.32-1.69-.73-3.66-1-5.21.1,0,.18-.07.26-.11,1.44-.55,2.94-1,4.3-1.65a6,6,0,0,0,3.47-4.31A9.19,9.19,0,0,0,45.28,33.12ZM28.09,24.79c1.95-.41,3.81-1,5.74-.53a2.61,2.61,0,0,1,2.22,2.26,2.74,2.74,0,0,1-1.51,2.93A15.16,15.16,0,0,1,29.31,31ZM38.14,39a13.54,13.54,0,0,1-5.22,1.92l-1.58.3L30,34.25c2.37-.49,4.68-1.17,7.1-.64A2.91,2.91,0,0,1,38.14,39Z"/></g></g></g></svg>