<svg xmlns="http://www.w3.org/2000/svg" xmlns:xlink="http://www.w3.org/1999/xlink" viewBox="0 0 65 65"><defs><style>.cls-1{isolation:isolate;}.cls-2{fill:url(#linear-gradient);}.cls-3,.cls-5{fill:#fff;}.cls-3{opacity:0.1;}.cls-4{fill:#383838;opacity:0.2;mix-blend-mode:multiply;}</style><linearGradient id="linear-gradient" y1="32.5" x2="65" y2="32.5" gradientTransform="translate(8.34 -6.6) rotate(13.28)" gradientUnits="userSpaceOnUse"><stop offset="0" stop-color="#77dcfe"/><stop offset="0.45" stop-color="#b5b7f6"/><stop offset="1" stop-color="#6ca6f0"/></linearGradient></defs><title>cybermile</title><g class="cls-1"><g id="Layer_2" data-name="Layer 2"><g id="OBJECTS"><circle class="cls-2" cx="32.5" cy="32.5" r="32.49" transform="translate(-6.6 8.34) rotate(-13.28)"/><path class="cls-3" d="M38.78,59.28A27.49,27.49,0,0,1,5,32.85a27.5,27.5,0,1,0,55,.34A27.5,27.5,0,0,1,38.78,59.28Z"/><path class="cls-4" d="M26.18,7.74A27.5,27.5,0,0,1,60,33.49a27.49,27.49,0,1,0-55,0A27.5,27.5,0,0,1,26.18,7.74Z"/><circle class="cls-4" cx="32.46" cy="33.51" r="27.49" transform="translate(-6.83 8.35) rotate(-13.28)"/><path class="cls-5" d="M50.88,37.95a4.36,4.36,0,0,0-4.22-4.74c-4.78-.47-5.59,5.1-5.59,5.1-.79,6.21-1.24,6.08-1.24,6.08a17.44,17.44,0,0,1-2.6,0c-8.83-.09-12-6.57-12-6.57C21.62,29.8,28.4,26,28.4,26c6.19-3.54,10.79,1.79,10.79,1.79,1.66,2.73,3.63,2.73,3.63,2.73,7.21.38,6.06-5.93,6.06-5.93C46.27,18.33,39.41,16,39.41,16a19.53,19.53,0,0,0-18,2.69,19.47,19.47,0,0,0-7.29,13.61A17.24,17.24,0,0,0,18,45.1c3.8,5.65,11.52,7,11.52,7,9,1.06,12.37-4.87,12.37-4.87C51.35,44.56,50.88,37.95,50.88,37.95ZM27,48.12s-7.58-2.66-9.5-10.56a15.71,15.71,0,0,1,3.05-14s6-7.55,15.31-5.42a15.28,15.28,0,0,1,10.07,7s.23,3.14-3.16,2.11a12,12,0,0,0-11.3-5.4A11.72,11.72,0,0,0,21.19,32.45,12.55,12.55,0,0,0,26.69,44s3.36,3.2,10.56,3.42C37.25,47.45,33.16,50.56,27,48.12Zm20.7-9.37a7.93,7.93,0,0,1-4.16,4.42s0-6.88,2.39-7C46,36.19,48.61,36,47.75,38.75Z"/></g></g></g></svg>