<svg xmlns="http://www.w3.org/2000/svg" viewBox="0 0 65 65"><defs><style>.cls-1{isolation:isolate;}.cls-2{fill:#575656;}.cls-3{fill:#383838;opacity:0.2;mix-blend-mode:multiply;}.cls-4,.cls-6{fill:#fff;}.cls-4{opacity:0.1;}.cls-5{fill:none;stroke:#fff;stroke-linecap:round;stroke-linejoin:round;stroke-width:4px;}</style></defs><title>eos</title><g class="cls-1"><g id="Layer_2" data-name="Layer 2"><g id="OBJECTS"><circle class="cls-2" cx="32.5" cy="32.5" r="32.49" transform="translate(-6.6 8.34) rotate(-13.28)"/><circle class="cls-3" cx="32.5" cy="32.5" r="27.49" transform="translate(-6.6 8.34) rotate(-13.28)"/><path class="cls-4" d="M38.78,59.28A27.49,27.49,0,0,1,5,32.85a27.5,27.5,0,1,0,55,.34A27.5,27.5,0,0,1,38.78,59.28Z"/><path class="cls-3" d="M26.18,7.74A27.5,27.5,0,0,1,60,33.49a27.49,27.49,0,1,0-55,0A27.5,27.5,0,0,1,26.18,7.74Z"/><path class="cls-5" d="M43.91,43.08"/><path class="cls-6" d="M43.82,42h0v0L40.32,26c0-.06,0-.09-.06-.14a0,0,0,0,0,0,0,.1.1,0,0,0,0-.06L33,15.84a.57.57,0,0,0-.91,0l-7.24,9.89a.57.57,0,0,0-.11.23L21.19,42c0,.06,0,.11,0,.17a.38.38,0,0,0,.09.23.67.67,0,0,0,.2.2l10.72,6.75a.57.57,0,0,0,.31.09h0a.65.65,0,0,0,.31-.09L43.57,42.6a.51.51,0,0,0,.2-.23s0-.06,0-.11h0A.28.28,0,0,0,43.82,42Zm-1.91-3.45-3.53-6.24,1.28-4ZM33.08,17.92l6,8.26L37.61,31l-4.53-8Zm-.57,6.36,4.62,8.18-2.88,9.09H30.77l-2.88-9.09Zm-.57-6.36v5l-4.53,8L25.9,26.15ZM25.35,28.29l1.28,4L23.1,38.55Zm1.77,5.5,2.45,7.75H22.73Zm-3.39,8.89h6.21l1.54,4.84ZM32.51,47l-1.37-4.3h2.74Zm1,.54,1.54-4.84h6.21Zm1.91-6,2.45-7.75,4.39,7.75Z"/><path class="cls-5" d="M41,24.33"/><path class="cls-5" d="M31.25,49.61"/><path class="cls-5" d="M45.1,43.08"/><path class="cls-5" d="M41,24.33"/><path class="cls-5" d="M24,24.33"/><path class="cls-5" d="M19.91,43.08"/><path class="cls-5" d="M31.23,49.61"/><path class="cls-5" d="M24,24.33"/><path class="cls-5" d="M37.81,25.76"/><path class="cls-5" d="M30.23,49.61"/><path class="cls-5" d="M41.49,42.54"/><path class="cls-5" d="M37.81,25.76"/><path class="cls-5" d="M22.62,25.76"/><path class="cls-5" d="M30.2,49.61"/><path class="cls-5" d="M22.62,25.76"/></g></g></g></svg>