<svg xmlns="http://www.w3.org/2000/svg" viewBox="0 0 65 65"><defs><style>.cls-1{isolation:isolate;}.cls-2{fill:#6d75b6;}.cls-3,.cls-5{fill:#383838;mix-blend-mode:multiply;}.cls-3,.cls-4{opacity:0.1;}.cls-4,.cls-6{fill:#fff;}.cls-5{opacity:0.2;}</style></defs><title>eth</title><g class="cls-1"><g id="Layer_2" data-name="Layer 2"><g id="OBJECTS"><circle class="cls-2" cx="32.5" cy="32.5" r="32.49" transform="translate(-6.6 8.34) rotate(-13.28)"/><circle class="cls-3" cx="32.5" cy="32.5" r="27.49" transform="translate(-6.6 8.34) rotate(-13.28)"/><path class="cls-4" d="M38.78,59.28A27.49,27.49,0,0,1,5,32.85a27.5,27.5,0,1,0,55,.34A27.5,27.5,0,0,1,38.78,59.28Z"/><path class="cls-5" d="M26.18,7.74A27.5,27.5,0,0,1,60,33.49a27.49,27.49,0,1,0-55,0A27.5,27.5,0,0,1,26.18,7.74Z"/><polygon class="cls-6" points="32.98 41.61 32.98 50.5 44 35 32.98 41.61"/><polygon class="cls-6" points="43.58 32.13 32.98 14.5 32.98 27.32 43.58 32.13"/><polygon class="cls-6" points="32.98 28.34 32.98 39.28 43.5 33.12 32.98 28.34"/><polygon class="cls-6" points="21.45 32.13 32.05 14.5 32.05 27.32 21.45 32.13"/><polygon class="cls-6" points="32.05 28.34 32.05 39.28 21.5 33.12 32.05 28.34"/><polygon class="cls-6" points="32.02 41.61 32.02 50.5 21 35 32.02 41.61"/></g></g></g></svg>