<svg xmlns="http://www.w3.org/2000/svg" viewBox="0 0 65 65"><defs><style>.cls-1{isolation:isolate;}.cls-2{fill:#4a90e2;}.cls-3{fill:#383838;opacity:0.2;mix-blend-mode:multiply;}.cls-4,.cls-5{fill:#fff;}.cls-4{opacity:0.1;}</style></defs><title>nano</title><g class="cls-1"><g id="Layer_2" data-name="Layer 2"><g id="OBJECTS"><circle class="cls-2" cx="32.5" cy="32.5" r="32.49" transform="translate(-6.6 8.34) rotate(-13.28)"/><circle class="cls-3" cx="32.5" cy="32.5" r="27.49" transform="translate(-6.6 8.34) rotate(-13.28)"/><path class="cls-4" d="M38.78,59.28A27.49,27.49,0,0,1,5,32.85a27.5,27.5,0,1,0,55,.34A27.5,27.5,0,0,1,38.78,59.28Z"/><path class="cls-3" d="M26.18,7.74A27.5,27.5,0,0,1,60,33.49a27.49,27.49,0,1,0-55,0A27.5,27.5,0,0,1,26.18,7.74Z"/><circle class="cls-5" cx="14.71" cy="38.41" r="2.98"/><path class="cls-5" d="M50.27,23.61a3,3,0,0,0-3,3c0,2.36-.37,3-3,3h-.25a2.92,2.92,0,0,0-2.67,2.92v.06c0,2.3-.44,2.86-3,2.86a.47.47,0,0,0-.31.06,3,3,0,0,0,.31,5.91,2.93,2.93,0,0,0,2.92-2.74v-.25c0-2.11.68-2.92,2.92-3h.06a2.94,2.94,0,0,0,2.92-2.8v-.19c0-2.18.68-3,3-3a3,3,0,0,0,3-3A2.91,2.91,0,0,0,50.27,23.61Zm-17.53,6h-.25c-2.61,0-3-.62-3-3a3,3,0,0,0-6,0c0,2.36-.37,2.92-3,2.92H20.3a2.92,2.92,0,0,0-2.67,2.92,3,3,0,0,0,3,3,2.93,2.93,0,0,0,2.92-2.74V32.5c0-2.18.68-3,3-3s3,.81,3,2.92a3,3,0,0,0,3,3,3,3,0,0,0,3-3A3,3,0,0,0,32.74,29.58Z"/></g></g></g></svg>