<svg xmlns="http://www.w3.org/2000/svg" viewBox="0 0 65 65"><defs><style>.cls-1{isolation:isolate;}.cls-2{fill:#afde19;}.cls-3{fill:#383838;opacity:0.2;mix-blend-mode:multiply;}.cls-4,.cls-5{fill:#fff;}.cls-4{opacity:0.1;}</style></defs><title>neo</title><g class="cls-1"><g id="Layer_2" data-name="Layer 2"><g id="OBJECTS"><circle class="cls-2" cx="32.5" cy="32.5" r="32.49" transform="translate(-6.6 8.34) rotate(-13.28)"/><circle class="cls-3" cx="32.5" cy="32.5" r="27.49" transform="translate(-6.6 8.34) rotate(-13.28)"/><path class="cls-4" d="M38.78,59.28A27.49,27.49,0,0,1,5,32.85a27.5,27.5,0,1,0,55,.34A27.5,27.5,0,0,1,38.78,59.28Z"/><path class="cls-3" d="M26.18,7.74A27.5,27.5,0,0,1,60,33.49a27.49,27.49,0,1,0-55,0A27.5,27.5,0,0,1,26.18,7.74Z"/><polygon class="cls-5" points="31.36 29.49 17.76 23.54 17.76 42.54 31.39 48.5 31.36 29.49"/><polygon class="cls-5" points="47.24 22.46 47.24 22.46 47.24 22.46 47.24 22.46"/><polygon class="cls-5" points="33.6 28.72 33.6 37.1 47.24 43.06 47.24 24.04 33.6 28.72"/><polygon class="cls-5" points="47.24 22.46 31.39 27.9 17.76 21.94 33.6 16.5 47.24 22.46"/></g></g></g></svg>