<svg xmlns="http://www.w3.org/2000/svg" viewBox="0 0 65 65"><defs><style>.cls-1{isolation:isolate;}.cls-2{fill:#3fa8d9;}.cls-3{fill:#383838;opacity:0.2;mix-blend-mode:multiply;}.cls-4,.cls-5{fill:#fff;}.cls-4{opacity:0.1;}</style></defs><title>qtum</title><g class="cls-1"><g id="Layer_2" data-name="Layer 2"><g id="OBJECTS"><circle class="cls-2" cx="32.5" cy="32.5" r="32.49" transform="translate(-6.6 8.34) rotate(-13.28)"/><circle class="cls-3" cx="32.5" cy="32.5" r="27.49" transform="translate(-6.6 8.34) rotate(-13.28)"/><path class="cls-4" d="M38.78,59.28A27.49,27.49,0,0,1,5,32.85a27.5,27.5,0,1,0,55,.34A27.5,27.5,0,0,1,38.78,59.28Z"/><path class="cls-3" d="M26.18,7.74A27.5,27.5,0,0,1,60,33.49a27.49,27.49,0,1,0-55,0A27.5,27.5,0,0,1,26.18,7.74Z"/><circle class="cls-5" cx="30.99" cy="41.43" r="1.09"/><circle class="cls-5" cx="17.76" cy="42.52" r="1.09"/><circle class="cls-5" cx="22.36" cy="40.34" r="1.09"/><circle class="cls-5" cx="18.38" cy="32.5" r="1.09"/><circle class="cls-5" cx="25.95" cy="32.5" r="1.09"/><circle class="cls-5" cx="14.64" cy="32.5" r="1.09"/><circle class="cls-5" cx="25.95" cy="48.41" r="1.09"/><path class="cls-5" d="M17.76,42.87a.35.35,0,0,1-.34-.25l-3.12-10a.35.35,0,0,1,.34-.46H36a.35.35,0,1,1,0,.7H26.55l4.74,8.41a.35.35,0,0,1-.35.52l-8.63-1.09h0a.35.35,0,0,1-.19-.1h0l0-.05,0,0-3.39-6.68-.54,8.73a.35.35,0,0,1-.31.33ZM22.88,40l7.46.94L26,33.27Zm-7.76-7.2,2.41,7.74L18,32.85Zm3.84,0,3.39,6.68,3.06-6.68Z"/><path class="cls-5" d="M25.95,48.76a.35.35,0,0,1-.2-.07l-8.19-5.89a.35.35,0,0,1,.05-.6L22.21,40a.35.35,0,0,1,.47.17l3.59,8.07a.35.35,0,0,1-.32.49Zm-7.5-6.18,6.65,4.78-2.92-6.56Z"/><path class="cls-5" d="M25.95,48.76a.35.35,0,0,1-.28-.56l5-7a.35.35,0,1,1,.57.41l-5,7A.35.35,0,0,1,25.95,48.76Z"/><circle class="cls-5" cx="30.99" cy="41.43" r="1.09"/><circle class="cls-5" cx="44.22" cy="42.52" r="1.09"/><circle class="cls-5" cx="49.54" cy="46.72" r="1.91"/><circle class="cls-5" cx="39.61" cy="40.34" r="1.09"/><circle class="cls-5" cx="43.59" cy="32.5" r="1.09"/><circle class="cls-5" cx="36.03" cy="32.5" r="1.09"/><circle class="cls-5" cx="47.34" cy="32.5" r="1.09"/><circle class="cls-5" cx="36.03" cy="48.41" r="1.09"/><path class="cls-5" d="M44.22,42.87h0a.35.35,0,0,1-.31-.33l-.54-8.73-3.39,6.68,0,0,0,0h0a.34.34,0,0,1-.2.11h0L31,41.78a.35.35,0,0,1-.35-.52l5-8.92,0-.05,0,0a.35.35,0,0,1,.23-.08H47.33a.35.35,0,0,1,.34.46l-3.12,10A.35.35,0,0,1,44.22,42.87ZM36,33.27,31.64,41,39.1,40Zm8-.42.48,7.74,2.41-7.74Zm-7.39,0,3.06,6.68L43,32.85Z"/><path class="cls-5" d="M36,48.76a.35.35,0,0,1-.32-.49l3.59-8.07a.35.35,0,0,1,.47-.17l4.6,2.18a.35.35,0,0,1,.05.6l-8.19,5.89A.35.35,0,0,1,36,48.76Zm3.76-8-2.92,6.56,6.65-4.78Z"/><path class="cls-5" d="M36,48.76H25.95a.35.35,0,0,1,0-.7h9.4L30.7,41.63a.35.35,0,1,1,.57-.41l5,7a.35.35,0,0,1-.28.56Z"/><circle class="cls-5" cx="30.99" cy="23.57" r="1.09"/><circle class="cls-5" cx="17.76" cy="22.48" r="1.09"/><circle class="cls-5" cx="22.36" cy="24.66" r="1.09"/><circle class="cls-5" cx="25.95" cy="16.59" r="1.09"/><path class="cls-5" d="M18.38,32.85H14.64a.35.35,0,0,1-.34-.46l3.12-10a.34.34,0,0,1,.38-.24.35.35,0,0,1,.31.33l.54,8.73L22,24.51l0,0h0l0,0a.35.35,0,0,1,.19-.1h0l8.63-1.09a.35.35,0,0,1,.35.52l-4.74,8.41H36a.35.35,0,1,1,0,.7H18.38Zm.57-.7H25.4l-3.06-6.68Zm-3.84,0H18l-.48-7.74ZM22.88,25,26,31.73,30.34,24Z"/><path class="cls-5" d="M22.36,25a.35.35,0,0,1-.15,0l-4.6-2.18a.35.35,0,0,1-.05-.6l8.19-5.89a.35.35,0,0,1,.53.43l-3.59,8.07a.35.35,0,0,1-.2.19Zm-3.91-2.6,3.74,1.77,2.92-6.56Z"/><path class="cls-5" d="M31,23.92a.35.35,0,0,1-.28-.15l-5-7a.35.35,0,1,1,.57-.41l5,7a.35.35,0,0,1-.28.56Z"/><circle class="cls-5" cx="30.99" cy="23.57" r="1.09"/><circle class="cls-5" cx="44.22" cy="22.48" r="1.09"/><circle class="cls-5" cx="39.61" cy="24.66" r="1.09"/><circle class="cls-5" cx="36.03" cy="16.59" r="1.09"/><path class="cls-5" d="M43.59,32.85H36a.35.35,0,0,1-.22-.08l-.05-.05,0-.05-5-8.92a.35.35,0,0,1,.35-.52l8.63,1.09h0a.35.35,0,0,1,.2.1h0l0,0h0l0,0,3.39,6.68.54-8.73a.35.35,0,0,1,.31-.33.35.35,0,0,1,.38.24l3.12,10a.35.35,0,0,1-.34.46H43.59Zm.37-.7h2.89l-2.41-7.74Zm-7.39,0H43l-3.39-6.68ZM31.64,24,36,31.73,39.1,25Z"/><path class="cls-5" d="M39.61,25l-.12,0a.35.35,0,0,1-.2-.19l-3.59-8.07a.35.35,0,0,1,.53-.43l8.19,5.89a.35.35,0,0,1-.05.6L39.77,25A.35.35,0,0,1,39.61,25Zm-2.74-7.38,2.92,6.56,3.74-1.77Z"/><path class="cls-5" d="M31,23.92a.35.35,0,0,1-.28-.56l4.64-6.42h-9.4a.35.35,0,0,1,0-.7H36a.35.35,0,0,1,.28.56l-5,7A.35.35,0,0,1,31,23.92Z"/><path class="cls-5" d="M49.54,47.07a.35.35,0,0,1-.22-.07L44,42.8a.35.35,0,1,1,.44-.55l5.33,4.2a.35.35,0,0,1-.22.63Z"/></g></g></g></svg>