<svg xmlns="http://www.w3.org/2000/svg" viewBox="0 0 65 65"><defs><style>.cls-1{isolation:isolate;}.cls-2{fill:#c93120;}.cls-3{fill:#383838;opacity:0.2;mix-blend-mode:multiply;}.cls-4{fill:#fff;opacity:0.1;}.cls-5{fill:#fdfbfc;}</style></defs><title>tron</title><g class="cls-1"><g id="Layer_2" data-name="Layer 2"><g id="OBJECTS"><circle class="cls-2" cx="32.5" cy="32.5" r="32.49" transform="translate(-6.6 8.34) rotate(-13.28)"/><circle class="cls-3" cx="32.5" cy="32.5" r="27.49" transform="translate(-6.6 8.34) rotate(-13.28)"/><path class="cls-4" d="M38.78,59.28A27.49,27.49,0,0,1,5,32.85a27.5,27.5,0,1,0,55,.34A27.5,27.5,0,0,1,38.78,59.28Z"/><path class="cls-3" d="M26.18,7.74A27.5,27.5,0,0,1,60,33.49a27.49,27.49,0,1,0-55,0A27.5,27.5,0,0,1,26.18,7.74Z"/><path class="cls-5" d="M50,25.71l-4.73-3.32-.11-.08a2.14,2.14,0,0,0-.62-.35h0l-12.75-3.1L20.37,16.09l-.3-.08a2.9,2.9,0,0,0-1.16-.15.81.81,0,0,0-.32.12l-.11.09a1.29,1.29,0,0,0-.3.47l0,.07V17l0,.06C20.58,23.8,23,30.61,25.4,37.2,27.23,42.28,29.13,47.54,31,52.7a.93.93,0,0,0,.84.61h.09a1,1,0,0,0,.88-.48l7-10.14,5.08-7.41,2.08-3c1.14-1.67,2.32-3.39,3.49-5.07l.06-.09V27A1.33,1.33,0,0,0,50,25.71m-8.15,3.7-5,2.6,2.93-3.14,3.74-4,0,0a4,4,0,0,1,.38-.41c.1-.1.2-.19.3-.31l1.94,1.35,1.4,1c-1.93,1-3.86,2-5.73,3M37.63,29c-1.26,1.36-2.55,2.76-3.85,4.13-2.5-3-5.06-6.12-7.53-9.09L22.88,20h0c-.25-.29-.5-.61-.75-.9s-.32-.4-.49-.6c1,.26,2,.51,3.05.75l2.71.66,15.28,3.71-5,5.42M33.22,46.1c.1-.92.2-1.87.29-2.8.08-.75.16-1.51.24-2.24.12-1.17.25-2.38.36-3.56l0-.21c.09-.75.18-1.54.23-2.32l.32-.15a4.09,4.09,0,0,0,.4-.19l6.09-3.18,6.17-3.22c-1.88,2.72-3.77,5.47-5.59,8.15-1.57,2.29-3.19,4.65-4.79,7L35,46.14c-.7,1-1.42,2.06-2.12,3.11.09-1.05.19-2.12.31-3.15M21,20.52c-.11-.32-.24-.64-.34-.95,2.37,2.86,4.76,5.74,7.08,8.53l3.61,4.35c.24.27.47.56.7.84s.6.74.92,1.1c-.11.9-.19,1.82-.29,2.7-.06.61-.12,1.23-.19,1.85h0c0,.4-.08.79-.12,1.18l-.2,1.75v.06c-.16,1.77-.35,3.56-.54,5.3-.08.72-.15,1.46-.23,2.19,0-.13-.1-.26-.14-.39-.13-.35-.26-.72-.39-1.08l-.94-2.61L21,20.52"/></g></g></g></svg>